<?xml version="1.0" encoding="iso-8859-1"?>
<!-- Generator: Adobe Illustrator 19.1.0, SVG Export Plug-In . SVG Version: 6.00 Build 0)  -->
<svg xmlns="http://www.w3.org/2000/svg" xmlns:xlink="http://www.w3.org/1999/xlink" version="1.1" id="Capa_1" x="0px" y="0px" viewBox="0 0 39.194 39.194" style="enable-background:new 0 0 39.194 39.194;" xml:space="preserve" width="512px" height="512px">
<g id="Gas_Pump">
	<path d="M33.066,35.104L33.066,35.104c-0.222-0.001-0.4-0.18-0.4-0.4l0.035-33.055c0-0.459-0.428-0.834-0.954-0.834L14.321,0.801   c-0.001,0-0.001,0-0.002,0c-0.525,0-0.954,0.372-0.954,0.831L13.33,34.687c-0.001,0.221-0.18,0.4-0.4,0.4l0,0   c-0.222-0.001-0.4-0.18-0.4-0.4l0.035-33.056C12.566,0.731,13.353,0,14.319,0c0.001,0,0.002,0,0.003,0l17.426,0.015   c0.967,0.002,1.754,0.734,1.754,1.635l-0.035,33.055C33.466,34.925,33.287,35.104,33.066,35.104z" fill="#FFFFFF"/>
	<path d="M10.547,39.194c-0.318,0-0.577-0.252-0.577-0.561l-0.004-3.147c0-0.65,0.563-1.18,1.256-1.182l1.716-0.001l0,0   c0.221,0,0.399,0.18,0.4,0.4c0,0.221-0.18,0.399-0.4,0.4l-1.715,0.001c-0.251,0-0.456,0.171-0.456,0.38l0.003,2.908l12.722-0.005   c0.221,0,0.4,0.18,0.4,0.4s-0.18,0.4-0.4,0.4L10.547,39.194z" fill="#FFFFFF"/>
	<path d="M35.457,39.194l-12.944-0.005c-0.221,0-0.4-0.18-0.4-0.4s0.18-0.4,0.4-0.4l0,0l12.722,0.005l0.003-2.909   c0-0.208-0.205-0.379-0.457-0.379l-1.714-0.001c-0.221-0.001-0.4-0.18-0.4-0.4c0.001-0.221,0.18-0.4,0.4-0.4l0,0l1.715,0.001   c0.693,0.002,1.257,0.531,1.257,1.181l-0.004,3.149C36.034,38.942,35.775,39.194,35.457,39.194z" fill="#FFFFFF"/>
	<path d="M30.18,11.406c-0.001,0-0.002,0-0.003,0l-14.053-0.012c-0.367,0-0.666-0.3-0.666-0.667l0.008-6.983   c0-0.367,0.299-0.666,0.666-0.666l14.055,0.013c0.367,0,0.666,0.3,0.666,0.667l-0.008,6.982c0,0.179-0.07,0.347-0.197,0.473   C30.522,11.338,30.356,11.406,30.18,11.406z M16.259,10.595l13.786,0.011l0.007-6.715L16.266,3.879L16.259,10.595z" fill="#FFFFFF"/>
	<path d="M7.738,30.416c-0.002,0-0.003,0-0.004,0c-0.724-0.001-1.288-0.201-1.681-0.596c-0.6-0.604-0.596-1.458-0.594-1.823   c0-0.508,0.01-9.667,0.01-9.667h0.801c0,0-0.01,9.159-0.01,9.629c-0.002,0.33-0.005,0.929,0.36,1.297   c0.236,0.238,0.611,0.359,1.113,0.359c0.001,0,0.003,0,0.004,0c0.52,0,0.901-0.127,1.135-0.379c0.302-0.326,0.276-0.77,0.276-0.773   c0.001-0.101,0.198-5.512,0.198-6.606c0-0.5,0.189-0.932,0.548-1.25c0.967-0.857,2.869-0.657,3.082-0.632   c0.219,0.026,0.375,0.226,0.35,0.445c-0.026,0.219-0.216,0.378-0.445,0.35c-0.479-0.058-1.863-0.09-2.456,0.437   c-0.189,0.168-0.277,0.375-0.277,0.65c0,1.109-0.192,6.366-0.201,6.59l0,0c0.003,0,0.05,0.754-0.487,1.333   C9.068,30.201,8.489,30.416,7.738,30.416z" fill="#FFFFFF"/>
	<path d="M7.613,18.732L7.613,18.732l-3.292-0.003c-0.203-0.001-0.373-0.151-0.397-0.353l-0.768-6.396   c0.001-0.116,0.082-1.146,1.64-1.431c0.271-0.05,0.619-0.067,0.89-0.073c2.318,0.002,2.62,1.061,2.647,1.181   c0.008,0.035,0.011,0.071,0.009,0.106l-0.329,6.587C8.002,18.564,7.826,18.732,7.613,18.732z M4.676,17.93l2.557,0.002l0.307-6.121   c-0.068-0.103-0.428-0.532-1.854-0.532c-0.281,0.016-0.522,0.019-0.744,0.06c-0.912,0.166-0.986,0.615-0.988,0.635L4.676,17.93z" fill="#FFFFFF"/>
	<path d="M5.535,10.896L5.535,10.896c-0.222-0.001-0.4-0.18-0.4-0.4C5.138,8.192,6.375,7.1,7.412,6.588   c1.09-0.536,2.168-0.545,2.229-0.545c0,0,0,0,0.001,0c0.221,0.001,0.398,0.18,0.398,0.4s-0.179,0.399-0.399,0.4   c-0.151,0-3.702,0.049-3.705,3.652C5.935,10.717,5.756,10.896,5.535,10.896z" fill="#FFFFFF"/>
</g>
<g>
</g>
<g>
</g>
<g>
</g>
<g>
</g>
<g>
</g>
<g>
</g>
<g>
</g>
<g>
</g>
<g>
</g>
<g>
</g>
<g>
</g>
<g>
</g>
<g>
</g>
<g>
</g>
<g>
</g>
</svg>
