<?xml version="1.0" encoding="iso-8859-1"?>
<!-- Generator: Adobe Illustrator 19.0.0, SVG Export Plug-In . SVG Version: 6.00 Build 0)  -->
<svg xmlns="http://www.w3.org/2000/svg" xmlns:xlink="http://www.w3.org/1999/xlink" version="1.1" id="Capa_1" x="0px" y="0px" viewBox="0 0 354.312 354.312" style="enable-background:new 0 0 354.312 354.312;" xml:space="preserve" width="512px" height="512px">
<g>
	<g>
		<rect x="204.47" y="49.272" width="83.04" height="83.04" fill="#0c6f96"/>
	</g>
</g>
<g>
	<g>
		<path d="M332.95,301.272h-174c-8.837,0-16,7.163-16,16v21.04c0,8.837,7.163,16,16,16h174c8.837,0,16-7.163,16-16v-21.04    C348.95,308.435,341.787,301.272,332.95,301.272z" fill="#0c6f96"/>
	</g>
</g>
<g>
	<g>
		<path d="M314.47,2.232H177.35c-8.837,0-16,7.163-16,16v102.88c-29.975,7.618-48.099,38.093-40.481,68.068    c0.151,0.593,0.311,1.184,0.481,1.772c5.6,21.52,6.4,50-4.96,61.6c-6.402,5.567-15.346,7.165-23.28,4.16    c-8.64-1.347-16.029-6.934-19.68-14.88c-10.24-23.6,10.4-68.32,18.96-83.2c1.92-2.96,47.04-73.04,0.8-114.24    c-4.72-4.96-46.72-48.48-80.8-44.08c-4.418,0.574-7.534,4.622-6.96,9.04c0.574,4.418,4.622,7.534,9.04,6.96    c6.844-0.482,13.693,0.871,19.84,3.92l-7.28,9.12c-5.518,6.894-4.408,16.955,2.48,22.48l30.08,24    c6.862,5.567,16.939,4.517,22.505-2.346c0.1-0.123,0.198-0.248,0.294-0.374l6.96-8.88c23.12,33.52-9.84,85.12-10.48,86    c-1.44,2.56-35.52,62.16-20.08,98c5.626,12.6,17.133,21.59,30.72,24c4.191,1.025,8.486,1.561,12.8,1.6    c9.576,0.326,18.854-3.356,25.6-10.16c17.44-17.2,15.68-52.16,9.44-76.8c-6.183-20.139,4.313-41.621,24-49.12v132.48    c0,8.837,7.163,16,16,16h137.12c8.837,0,16-7.163,16-16v-252C330.47,9.395,323.307,2.232,314.47,2.232z M277.91,182.872h-64    c-4.418,0-8-3.582-8-8s3.582-8,8-8h64c4.418,0,8,3.582,8,8S282.328,182.872,277.91,182.872z M303.43,132.232    c0,8.837-7.163,16-16,16h-82.96c-8.837,0-16-7.163-16-16v-83.12c0-8.837,7.163-16,16-16h82.96c8.837,0,16,7.163,16,16V132.232z" fill="#0c6f96"/>
	</g>
</g>
<g>
</g>
<g>
</g>
<g>
</g>
<g>
</g>
<g>
</g>
<g>
</g>
<g>
</g>
<g>
</g>
<g>
</g>
<g>
</g>
<g>
</g>
<g>
</g>
<g>
</g>
<g>
</g>
<g>
</g>
</svg>
