<svg xmlns="http://www.w3.org/2000/svg" viewBox="0 0 53.2 21.065">
  <defs>
    <style>
      .cls-1 {
        fill: #fff;
        fill-rule: evenodd;
      }
    </style>
  </defs>
  <path id="Path_113" data-name="Path 113" class="cls-1" d="M33.083,12.363H49.668V8.615a7.2,7.2,0,0,0-7.409-7.409H33.126l-.043,11.157ZM13.612,18.394a3.094,3.094,0,0,1-6.117,0H0V12.363H1.206V0H27.957V12.363h1.206v2.412h2.714L31.92,0H42.258a8.4,8.4,0,0,1,8.615,8.615v3.748H53.2v6.031H49.625a3.1,3.1,0,0,1-6.117.043H41.526a3.1,3.1,0,0,1-3.058,2.585,3.137,3.137,0,0,1-3.058-2.585H31.834V16.025H29.12v2.412H21.668a3.135,3.135,0,0,1-3.058,2.628,3.1,3.1,0,0,1-3.058-2.628H13.612Zm-4.911,0a1.877,1.877,0,0,0,3.618,0Zm8.1,0a1.877,1.877,0,0,0,3.618,0Zm19.858,0a1.877,1.877,0,0,0,3.618,0Zm8.1,0a1.877,1.877,0,0,0,3.618,0ZM26.708,12.363V1.206H2.412V12.363H6.5v-8.1H7.754v8.1H11.5v-8.1h1.206v8.1h3.748v-8.1h1.206v8.1h3.748v-8.1h1.206v8.1h4.092Zm1.206,1.206H1.206v3.618H27.914V13.569Zm24.08,0H33.083v3.618H52.037V13.569Z"/>
</svg>
