<svg id="Group_324" data-name="Group 324" xmlns="http://www.w3.org/2000/svg" viewBox="0 0 47.5 39">
  <defs>
    <style>
      .cls-1 {
        fill: #fff;
      }
    </style>
  </defs>
  <g id="Group_315" data-name="Group 315">
    <path id="Path_119" data-name="Path 119" class="cls-1" d="M17,17h-.2a.55.55,0,0,1-.3-.5V13H10V12h7a.472.472,0,0,1,.5.5v2.9l7.7-6.9L17.5,1.6V4.5A.472.472,0,0,1,17,5H7V4h9.5V.5a.55.55,0,0,1,.3-.5.749.749,0,0,1,.5.1l9,8a.5.5,0,0,1,0,.8l-9,8A.367.367,0,0,1,17,17Z"/>
  </g>
  <g id="Group_316" data-name="Group 316">
    <path id="Path_120" data-name="Path 120" class="cls-1" d="M39,24h-.2a.55.55,0,0,1-.3-.5V20H35V19h4a.472.472,0,0,1,.5.5v2.9l6.7-5.9-6.7-5.9v2.9a.472.472,0,0,1-.5.5H29V13h9.5V9.5a.55.55,0,0,1,.3-.5c.2-.1.4-.1.5.1l8,7a.5.5,0,0,1,0,.8l-8,7A.367.367,0,0,1,39,24Z"/>
  </g>
  <g id="Group_317" data-name="Group 317">
    <rect id="Rectangle_104" data-name="Rectangle 104" class="cls-1" width="7" height="1" transform="translate(4 8)"/>
  </g>
  <g id="Group_318" data-name="Group 318">
    <rect id="Rectangle_105" data-name="Rectangle 105" class="cls-1" width="2" height="1" transform="translate(0 8)"/>
  </g>
  <g id="Group_319" data-name="Group 319">
    <rect id="Rectangle_106" data-name="Rectangle 106" class="cls-1" width="8" height="1" transform="translate(11 25)"/>
  </g>
  <g id="Group_320" data-name="Group 320">
    <rect id="Rectangle_107" data-name="Rectangle 107" class="cls-1" width="2" height="1" transform="translate(7 25)"/>
  </g>
  <g id="Group_321" data-name="Group 321">
    <rect id="Rectangle_108" data-name="Rectangle 108" class="cls-1" width="2" height="1" transform="translate(3 25)"/>
  </g>
  <g id="Group_322" data-name="Group 322">
    <rect id="Rectangle_109" data-name="Rectangle 109" class="cls-1" width="2" height="1" transform="translate(3 31)"/>
  </g>
  <g id="Group_323" data-name="Group 323">
    <path id="Path_121" data-name="Path 121" class="cls-1" d="M25,39h-.2a.55.55,0,0,1-.3-.5V32H7V31H25a.472.472,0,0,1,.5.5v5.8L36.3,26.5,25.5,16.6v4.9a.472.472,0,0,1-.5.5H15V21h9.5V15.5a.55.55,0,0,1,.3-.5.44.44,0,0,1,.5.1l12,11a.52.52,0,0,1,.2.4.6.6,0,0,1-.1.4l-12,12C25.3,38.9,25.1,39,25,39Z"/>
  </g>
</svg>
