<svg xmlns="http://www.w3.org/2000/svg" viewBox="0 0 53.2 30.579">
  <defs>
    <style>
      .cls-1 {
        fill: #fff;
      }

      .cls-2 {
        fill: #edf1f5;
        fill-rule: evenodd;
      }
    </style>
  </defs>
  <g id="Group_326" data-name="Group 326" transform="translate(-43 -391)">
    <g id="Group_310" data-name="Group 310" transform="translate(43 391)">
      <path id="Path_114" data-name="Path 114" class="cls-1" d="M12.9,26.839H50.257V4.4H12.9Zm.616-21.822H49.641V26.222H13.516Z" transform="translate(-4.948 -1.746)"/>
      <path id="Path_115" data-name="Path 115" class="cls-1" d="M48.022,27.345V2.071A1.986,1.986,0,0,0,46.049.1H7.213A1.9,1.9,0,0,0,5.24,2.009V27.284H0V28.7a1.986,1.986,0,0,0,1.973,1.973H51.227A1.986,1.986,0,0,0,53.2,28.7V27.284H48.022ZM5.856,2.009A1.368,1.368,0,0,1,7.213.653H46.049a1.368,1.368,0,0,1,1.356,1.356V27.284H5.856ZM52.645,28.7a1.368,1.368,0,0,1-1.356,1.356H1.973A1.368,1.368,0,0,1,.616,28.7v-.8H52.645Z" transform="translate(0 -0.095)"/>
    </g>
    <path id="Path_116" data-name="Path 116" class="cls-2" d="M6.092,9.511H3.371V8.836h2.7v.674Zm4.31,4.43H7.44V0H20.971V5.417H23.5a3.9,3.9,0,0,1,4,4v4.527H24.559a1.909,1.909,0,0,1-1.878,1.565A1.932,1.932,0,0,1,20.8,13.941H14.158a1.909,1.909,0,0,1-3.756,0Zm14.158-.7h2.263V9.414A3.226,3.226,0,0,0,23.5,6.092H21V8.62h-.674V.674H8.138V13.243H10.4a1.909,1.909,0,0,1,1.878-1.565,1.932,1.932,0,0,1,1.878,1.565H20.8a1.909,1.909,0,0,1,1.878-1.565,1.932,1.932,0,0,1,1.878,1.565Zm-12.279-.891a1.228,1.228,0,1,0,1.228,1.228,1.233,1.233,0,0,0-1.228-1.228Zm10.4,0a1.228,1.228,0,1,0,1.228,1.228,1.233,1.233,0,0,0-1.228-1.228ZM6.092,5.1H0V4.43H6.092V5.1Zm0,2.191H1.685V6.621H6.068V7.3Z" transform="translate(55.946 397.781)"/>
  </g>
</svg>
