<svg xmlns="http://www.w3.org/2000/svg" viewBox="0 0 53.2 30.579">
  <defs>
    <style>
      .cls-1, .cls-2 {
        fill: #fff;
      }

      .cls-2 {
        fill-rule: evenodd;
      }
    </style>
  </defs>
  <g id="Group_325" data-name="Group 325" transform="translate(-43 -519)">
    <g id="Group_312" data-name="Group 312" transform="translate(43 519)">
      <path id="Path_114" data-name="Path 114" class="cls-1" d="M12.9,26.839H50.257V4.4H12.9Zm.616-21.822H49.641V26.222H13.516Z" transform="translate(-4.948 -1.746)"/>
      <path id="Path_115" data-name="Path 115" class="cls-1" d="M48.022,27.345V2.071A1.986,1.986,0,0,0,46.049.1H7.213A1.9,1.9,0,0,0,5.24,2.009V27.284H0V28.7a1.986,1.986,0,0,0,1.973,1.973H51.227A1.986,1.986,0,0,0,53.2,28.7V27.284H48.022ZM5.856,2.009A1.368,1.368,0,0,1,7.213.653H46.049a1.368,1.368,0,0,1,1.356,1.356V27.284H5.856ZM52.645,28.7a1.368,1.368,0,0,1-1.356,1.356H1.973A1.368,1.368,0,0,1,.616,28.7v-.8H52.645Z" transform="translate(0 -0.095)"/>
    </g>
    <path id="Path_118" data-name="Path 118" class="cls-2" d="M17.1,6.391h8.573V4.453a3.721,3.721,0,0,0-3.83-3.83H17.123L17.1,6.391ZM7.036,9.508a1.6,1.6,0,0,1-3.162,0H0V6.391H.623V0H14.451V6.391h.623V7.638h1.4L16.5,0h5.344A4.343,4.343,0,0,1,26.3,4.453V6.391h1.2V9.508H25.652a1.6,1.6,0,0,1-3.162.022H21.466a1.6,1.6,0,0,1-1.581,1.336A1.622,1.622,0,0,1,18.3,9.53H16.455V8.283h-1.4V9.53H11.2a1.621,1.621,0,0,1-1.581,1.358A1.6,1.6,0,0,1,8.038,9.53h-1Zm-2.538,0a.97.97,0,0,0,1.87,0Zm4.186,0a.97.97,0,0,0,1.87,0Zm10.265,0a.97.97,0,0,0,1.87,0Zm4.186,0a.97.97,0,0,0,1.87,0Zm-9.33-3.117V.623H1.247V6.391H3.362V2.2h.646V6.391H5.945V2.2h.623V6.391H8.506V2.2H9.13V6.391h1.937V2.2h.623V6.391h2.115Zm.623.623H.623v1.87H14.429V7.014Zm12.447,0H17.1v1.87h9.8V7.014Z" transform="translate(56 528)"/>
  </g>
</svg>
