<?xml version="1.0" encoding="iso-8859-1"?>
<!-- Generator: Adobe Illustrator 20.1.0, SVG Export Plug-In . SVG Version: 6.00 Build 0)  -->
<svg version="1.1" id="Capa_1" xmlns="http://www.w3.org/2000/svg" xmlns:xlink="http://www.w3.org/1999/xlink" x="0px" y="0px"
	 viewBox="133.279 397 55.239 36.195" style="enable-background:new 133.279 397 55.239 36.195;" xml:space="preserve">
<metadata><?xpacket begin="﻿" id="W5M0MpCehiHzreSzNTczkc9d"?>
<x:xmpmeta xmlns:x="adobe:ns:meta/" x:xmptk="Adobe XMP Core 5.6-c132 79.159284, 2016/04/19-13:13:40        ">
   <rdf:RDF xmlns:rdf="http://www.w3.org/1999/02/22-rdf-syntax-ns#">
      <rdf:Description rdf:about=""/>
   </rdf:RDF>
</x:xmpmeta>
                                                                                                    
                                                                                                    
                                                                                                    
                                                                                                    
                                                                                                    
                                                                                                    
                                                                                                    
                                                                                                    
                                                                                                    
                                                                                                    
                                                                                                    
                                                                                                    
                                                                                                    
                                                                                                    
                                                                                                    
                                                                                                    
                                                                                                    
                                                                                                    
                                                                                                    
                                                                                                    
                           
<?xpacket end="w"?></metadata>
<g>
	<g>
		<path style="fill:#FFFFFF;" d="M186.323,405.287h0.849c0.467,0,0.846-0.379,0.846-0.847v-6.093c0-0.468-0.379-0.848-0.846-0.848
			h-52.544c-0.47,0-0.849,0.38-0.849,0.848v6.093c0,0.468,0.379,0.847,0.849,0.847h0.846c0.47,0,0.849,0.38,0.849,0.848v17.926
			c0,0.468-0.379,0.848-0.849,0.848h-0.846c-0.47,0-0.849,0.379-0.849,0.847v6.094c0,0.468,0.379,0.847,0.849,0.847h52.544
			c0.467,0,0.846-0.379,0.846-0.847v-6.094c0-0.468-0.379-0.847-0.846-0.847h-0.849c-0.468,0-0.849-0.38-0.849-0.848v-17.926
			C185.475,405.667,185.855,405.287,186.323,405.287z"/>
		<path style="fill:#333333;" d="M187.172,433.195h-52.544c-0.744,0-1.349-0.604-1.349-1.347v-6.094
			c0-0.743,0.605-1.347,1.349-1.347h0.846c0.192,0,0.349-0.156,0.349-0.348v-17.926c0-0.192-0.157-0.348-0.349-0.348h-0.846
			c-0.744,0-1.349-0.604-1.349-1.347v-6.093c0-0.743,0.605-1.348,1.349-1.348h52.544c0.742,0,1.346,0.604,1.346,1.348v6.093
			c0,0.743-0.604,1.347-1.346,1.347h-0.849c-0.192,0-0.349,0.156-0.349,0.348v17.926c0,0.192,0.156,0.348,0.349,0.348h0.849
			c0.742,0,1.346,0.604,1.346,1.347v6.094C188.518,432.591,187.914,433.195,187.172,433.195z M134.628,425.408
			c-0.192,0-0.349,0.156-0.349,0.347v6.094c0,0.191,0.156,0.347,0.349,0.347h52.544c0.19,0,0.346-0.155,0.346-0.347v-6.094
			c0-0.191-0.155-0.347-0.346-0.347h-0.849c-0.743,0-1.349-0.604-1.349-1.348v-17.926c0-0.743,0.605-1.348,1.349-1.348h0.849
			c0.19,0,0.346-0.156,0.346-0.347v-6.093c0-0.192-0.155-0.348-0.346-0.348h-52.544c-0.192,0-0.349,0.156-0.349,0.348v6.093
			c0,0.191,0.156,0.347,0.349,0.347h0.846c0.744,0,1.349,0.604,1.349,1.348v17.926c0,0.743-0.605,1.348-1.349,1.348H134.628z"/>
	</g>
	<path style="fill:#333333;" d="M149.815,424.06c0,0.468-0.192,0.848-0.428,0.848h-0.429c-0.236,0-0.428-0.38-0.428-0.848v-17.926
		c0-0.468,0.192-0.848,0.428-0.848h0.429c0.237,0,0.428,0.38,0.428,0.848V424.06z"/>
	<path style="fill:#333333;" d="M143.116,424.06c0,0.468-0.192,0.848-0.428,0.848h-0.429c-0.236,0-0.428-0.38-0.428-0.848v-17.926
		c0-0.468,0.192-0.848,0.428-0.848h0.429c0.237,0,0.428,0.38,0.428,0.848V424.06z"/>
	<g>
		<path style="fill:#333333;" d="M156,424.06c0,0.468-0.192,0.848-0.428,0.848h-0.429c-0.236,0-0.428-0.38-0.428-0.848v-17.926
			c0-0.468,0.192-0.848,0.428-0.848h0.429c0.237,0,0.428,0.38,0.428,0.848V424.06z"/>
	</g>
	<g>
		<g>
			<path style="fill:#333333;" d="M172.188,424.522h-9.199c-1.153,0-2.091-0.938-2.091-2.091v-15.053
				c0-1.152,0.938-2.091,2.091-2.091h9.199c1.153,0,2.091,0.938,2.091,2.091v5.018c0,0.231-0.187,0.418-0.418,0.418
				s-0.418-0.187-0.418-0.418v-5.018c0-0.692-0.563-1.254-1.254-1.254h-9.199c-0.692,0-1.254,0.563-1.254,1.254v15.053
				c0,0.692,0.563,1.254,1.254,1.254h9.199c0.692,0,1.254-0.563,1.254-1.254v-5.018c0-0.231,0.187-0.418,0.418-0.418
				s0.418,0.187,0.418,0.418v5.018C174.279,423.584,173.342,424.522,172.188,424.522z"/>
			<path style="fill:#333333;" d="M172.189,424.772h-9.2c-1.291,0-2.341-1.05-2.341-2.341v-15.053c0-1.291,1.05-2.341,2.341-2.341
				h9.2c1.291,0,2.341,1.05,2.341,2.341v5.018c0,0.368-0.3,0.668-0.668,0.668c-0.369,0-0.669-0.3-0.669-0.668v-5.018
				c0-0.554-0.45-1.004-1.004-1.004h-9.2c-0.554,0-1.004,0.451-1.004,1.004v15.053c0,0.554,0.451,1.004,1.004,1.004h9.2
				c0.554,0,1.004-0.451,1.004-1.004v-5.018c0-0.369,0.3-0.668,0.669-0.668c0.368,0,0.668,0.3,0.668,0.668v5.018
				C174.53,423.722,173.48,424.772,172.189,424.772z M162.989,405.537c-1.015,0-1.841,0.826-1.841,1.841v15.053
				c0,1.015,0.826,1.841,1.841,1.841h9.2c1.015,0,1.841-0.826,1.841-1.841v-5.018c0-0.186-0.337-0.186-0.337,0v5.018
				c0,0.83-0.675,1.504-1.504,1.504h-9.2c-0.83,0-1.504-0.675-1.504-1.504v-15.053c0-0.83,0.675-1.504,1.504-1.504h9.2
				c0.829,0,1.504,0.675,1.504,1.504v5.018c0,0.186,0.337,0.186,0.337,0v-5.018c0-1.015-0.826-1.841-1.841-1.841H162.989z"/>
		</g>
		<g>
			<path style="fill:#333333;" d="M179.715,415.323h-13.381c-0.231,0-0.418-0.187-0.418-0.418c0-0.231,0.187-0.418,0.418-0.418
				h13.381c0.231,0,0.418,0.187,0.418,0.418C180.133,415.135,179.946,415.323,179.715,415.323z"/>
			<path style="fill:#333333;" d="M179.715,415.573h-13.381c-0.368,0-0.668-0.3-0.668-0.668c0-0.368,0.3-0.668,0.668-0.668h13.381
				c0.368,0,0.668,0.3,0.668,0.668C180.383,415.273,180.083,415.573,179.715,415.573z M166.334,414.736
				c-0.093,0-0.168,0.075-0.168,0.168s0.075,0.168,0.168,0.168h13.381c0.093,0,0.168-0.076,0.168-0.168s-0.075-0.168-0.168-0.168
				H166.334z"/>
		</g>
		<g>
			<path style="fill:#333333;" d="M177.206,417.832c-0.107,0-0.214-0.041-0.296-0.122c-0.163-0.163-0.163-0.428,0-0.591l2.213-2.213
				l-2.213-2.213c-0.163-0.163-0.163-0.428,0-0.591c0.163-0.163,0.428-0.163,0.591,0l2.509,2.509c0.163,0.163,0.163,0.428,0,0.591
				l-2.509,2.509C177.42,417.791,177.313,417.832,177.206,417.832z"/>
			<path style="fill:#333333;" d="M177.206,418.082c-0.178,0-0.345-0.069-0.472-0.194c-0.127-0.127-0.196-0.295-0.196-0.474
				c0-0.178,0.069-0.346,0.195-0.472l2.036-2.036l-2.036-2.036c-0.126-0.126-0.195-0.294-0.195-0.473
				c0-0.178,0.069-0.346,0.195-0.472c0.26-0.262,0.685-0.26,0.944,0l2.509,2.509c0.261,0.26,0.261,0.685,0,0.945l-2.509,2.509
				C177.551,418.013,177.384,418.082,177.206,418.082z M177.205,412.229c-0.042,0-0.085,0.016-0.118,0.049
				c-0.065,0.065-0.065,0.172,0,0.238l2.39,2.39l-2.39,2.39c-0.065,0.065-0.065,0.172,0,0.238c0.062,0.062,0.174,0.062,0.238,0
				l2.508-2.508c0.065-0.065,0.065-0.172,0-0.238l-2.509-2.509C177.291,412.245,177.248,412.229,177.205,412.229z"/>
		</g>
	</g>
</g>
</svg>
