<?xml version="1.0" encoding="iso-8859-1"?>
<!-- Generator: Adobe Illustrator 20.1.0, SVG Export Plug-In . SVG Version: 6.00 Build 0)  -->
<svg version="1.1" id="Capa_1" xmlns="http://www.w3.org/2000/svg" xmlns:xlink="http://www.w3.org/1999/xlink" x="0px" y="0px"
	 viewBox="179.381 397 55.238 36.195" style="enable-background:new 179.381 397 55.238 36.195;" xml:space="preserve">
<metadata><?xpacket begin="﻿" id="W5M0MpCehiHzreSzNTczkc9d"?>
<x:xmpmeta xmlns:x="adobe:ns:meta/" x:xmptk="Adobe XMP Core 5.6-c132 79.159284, 2016/04/19-13:13:40        ">
   <rdf:RDF xmlns:rdf="http://www.w3.org/1999/02/22-rdf-syntax-ns#">
      <rdf:Description rdf:about=""/>
   </rdf:RDF>
</x:xmpmeta>
                                                                                                    
                                                                                                    
                                                                                                    
                                                                                                    
                                                                                                    
                                                                                                    
                                                                                                    
                                                                                                    
                                                                                                    
                                                                                                    
                                                                                                    
                                                                                                    
                                                                                                    
                                                                                                    
                                                                                                    
                                                                                                    
                                                                                                    
                                                                                                    
                                                                                                    
                                                                                                    
                           
<?xpacket end="w"?></metadata>
<g>
	<g>
		<path style="fill:#333333;" d="M233.273,433.195h-52.544c-0.743,0-1.349-0.604-1.349-1.347v-6.094
			c0-0.743,0.605-1.347,1.349-1.347h0.846c0.192,0,0.349-0.156,0.349-0.348v-17.926c0-0.192-0.156-0.348-0.349-0.348h-0.846
			c-0.743,0-1.349-0.604-1.349-1.347v-6.093c0-0.743,0.605-1.348,1.349-1.348h52.544c0.742,0,1.346,0.604,1.346,1.348v6.093
			c0,0.743-0.604,1.347-1.346,1.347h-0.849c-0.192,0-0.349,0.156-0.349,0.348v17.926c0,0.192,0.156,0.348,0.349,0.348h0.849
			c0.742,0,1.346,0.604,1.346,1.347v6.094C234.619,432.591,234.016,433.195,233.273,433.195z M180.729,425.408
			c-0.192,0-0.349,0.156-0.349,0.347v6.094c0,0.191,0.156,0.347,0.349,0.347h52.544c0.19,0,0.346-0.155,0.346-0.347v-6.094
			c0-0.191-0.155-0.347-0.346-0.347h-0.849c-0.743,0-1.349-0.604-1.349-1.348v-17.926c0-0.743,0.605-1.348,1.349-1.348h0.849
			c0.19,0,0.346-0.156,0.346-0.347v-6.093c0-0.192-0.155-0.348-0.346-0.348h-52.544c-0.192,0-0.349,0.156-0.349,0.348v6.093
			c0,0.191,0.156,0.347,0.349,0.347h0.846c0.743,0,1.349,0.604,1.349,1.348v17.926c0,0.743-0.605,1.348-1.349,1.348H180.729z"/>
	</g>
	<g>
		<g>
			<path style="fill:#333333;" d="M189.217,424.06c0,0.468-0.192,0.848-0.428,0.848h-0.429c-0.236,0-0.428-0.38-0.428-0.848v-17.926
				c0-0.468,0.192-0.848,0.428-0.848h0.429c0.237,0,0.428,0.38,0.428,0.848V424.06z"/>
		</g>
		<g>
			<path style="fill:#333333;" d="M195.917,424.06c0,0.468-0.192,0.848-0.428,0.848h-0.429c-0.236,0-0.428-0.38-0.428-0.848v-17.926
				c0-0.468,0.192-0.848,0.428-0.848h0.429c0.237,0,0.428,0.38,0.428,0.848V424.06z"/>
		</g>
		<g>
			<path style="fill:#333333;" d="M202.778,424.06c0,0.468-0.192,0.848-0.428,0.848h-0.429c-0.236,0-0.428-0.38-0.428-0.848v-17.926
				c0-0.468,0.192-0.848,0.428-0.848h0.429c0.237,0,0.428,0.38,0.428,0.848V424.06z"/>
		</g>
	</g>
	<g>
		<g>
			<path style="fill:#333333;" d="M212.264,422.352c0,0.452-0.37,0.822-0.822,0.822c-0.452,0-0.822-0.37-0.822-0.822
				c0-0.452,0.37-0.822,0.822-0.822C211.894,421.53,212.264,421.9,212.264,422.352"/>
		</g>
		<g>
			<path style="fill:#333333;" d="M222.497,425.229c-1.603,0-2.877-1.274-2.877-2.877c0-1.603,1.274-2.877,2.877-2.877
				s2.877,1.274,2.877,2.877C225.374,423.955,224.1,425.229,222.497,425.229z M222.497,420.297c-1.151,0-2.055,0.904-2.055,2.055
				c0,1.151,0.904,2.055,2.055,2.055s2.055-0.904,2.055-2.055C224.552,421.201,223.648,420.297,222.497,420.297z"/>
		</g>
		<g>
			<path style="fill:#333333;" d="M211.442,425.229c-1.603,0-2.877-1.274-2.877-2.877c0-1.603,1.274-2.877,2.877-2.877
				s2.877,1.274,2.877,2.877C214.319,423.955,213.045,425.229,211.442,425.229z M211.442,420.297c-1.151,0-2.055,0.904-2.055,2.055
				c0,1.151,0.904,2.055,2.055,2.055c1.151,0,2.055-0.904,2.055-2.055C213.497,421.201,212.593,420.297,211.442,420.297z"/>
		</g>
		<g>
			<path style="fill:#333333;" d="M223.319,422.352c0,0.452-0.37,0.822-0.822,0.822c-0.452,0-0.822-0.37-0.822-0.822
				c0-0.452,0.37-0.822,0.822-0.822C222.949,421.53,223.319,421.9,223.319,422.352"/>
		</g>
		<g>
			<path style="fill:#333333;" d="M227.656,422.585h-2.993v-0.389c0-1.088-0.941-1.944-2.138-1.944s-2.138,0.855-2.138,1.944v0.389
				h-6.842v-0.389c0-1.088-0.941-1.944-2.138-1.944s-2.138,0.855-2.138,1.944v0.389h-1.497c-0.812,0-1.497-0.622-1.497-1.361v-4.082
				h21.38V422.585z M225.476,421.808h1.326v-3.887h-19.67v3.304c0,0.311,0.299,0.583,0.641,0.583h0.684
				c0.214-1.322,1.454-2.332,2.95-2.332c1.497,0,2.737,1.011,2.95,2.332h5.174c0.214-1.322,1.454-2.332,2.95-2.332
				C223.979,419.475,225.262,420.486,225.476,421.808z"/>
		</g>
		<g>
			<path style="fill:#333333;" d="M229.211,417.993h-3.887c-0.233,0-0.389-0.179-0.389-0.448c0-0.269,0.155-0.448,0.389-0.448h3.887
				c0.233,0,0.389,0.179,0.389,0.448C229.6,417.814,229.445,417.993,229.211,417.993z"/>
		</g>
		<g>
			<path style="fill:#333333;" d="M227.326,418.032h-20.515c-0.458,0-0.831-0.353-0.831-0.787v-2.064
				c0-0.434,0.373-0.787,0.831-0.787h0.162v-5.647h-0.162c-0.458,0-0.831-0.353-0.831-0.787v-2.064c0-0.434,0.373-0.787,0.831-0.787
				h20.515c0.458,0,0.83,0.353,0.83,0.787v2.064c0,0.434-0.372,0.787-0.83,0.787h-0.162v5.647h0.162c0.458,0,0.83,0.353,0.83,0.787
				v2.064C228.156,417.679,227.784,418.032,227.326,418.032z M206.98,417.032h20.176v-1.638h-0.161
				c-0.458,0-0.831-0.354-0.831-0.788v-6.073c0-0.434,0.373-0.787,0.831-0.787h0.161v-1.638H206.98v1.638h0.161
				c0.459,0,0.832,0.353,0.832,0.787v6.073c0,0.434-0.373,0.788-0.832,0.788h-0.161V417.032z"/>
		</g>
		<g>
			<path style="fill:#333333;" d="M210.306,415.115c0,0.194-0.08,0.352-0.178,0.352h-0.178c-0.098,0-0.178-0.158-0.178-0.352v-7.451
				c0-0.194,0.08-0.352,0.178-0.352h0.178c0.098,0,0.178,0.158,0.178,0.352V415.115z"/>
			<path style="fill:#333333;" d="M210.128,415.717h-0.178c-0.248,0-0.429-0.253-0.429-0.602v-7.451
				c0-0.349,0.181-0.603,0.429-0.603h0.178c0.248,0,0.429,0.253,0.429,0.603v7.451C210.557,415.463,210.376,415.717,210.128,415.717
				z M210.034,415.217h0.01c0.007-0.024,0.013-0.058,0.013-0.102v-7.451c0-0.044-0.006-0.079-0.013-0.103h-0.01
				c-0.007,0.024-0.013,0.059-0.013,0.103v7.451C210.021,415.159,210.027,415.193,210.034,415.217z"/>
		</g>
		<g>
			<path style="fill:#333333;" d="M214.811,415.115c0,0.194-0.08,0.352-0.178,0.352h-0.178c-0.098,0-0.178-0.158-0.178-0.352v-7.451
				c0-0.194,0.08-0.352,0.178-0.352h0.178c0.098,0,0.178,0.158,0.178,0.352V415.115z"/>
			<path style="fill:#333333;" d="M214.633,415.717h-0.179c-0.248,0-0.428-0.253-0.428-0.602v-7.451c0-0.349,0.18-0.603,0.428-0.603
				h0.179c0.248,0,0.428,0.253,0.428,0.603v7.451C215.061,415.463,214.881,415.717,214.633,415.717z M214.539,415.217h0.009
				c0.007-0.024,0.013-0.058,0.013-0.102v-7.451c0-0.044-0.006-0.079-0.013-0.103h-0.009c-0.007,0.024-0.013,0.059-0.013,0.103
				v7.451C214.526,415.159,214.532,415.193,214.539,415.217z"/>
		</g>
		<g>
			<path style="fill:#333333;" d="M219.315,415.115c0,0.194-0.08,0.352-0.178,0.352h-0.178c-0.098,0-0.178-0.158-0.178-0.352v-7.451
				c0-0.194,0.08-0.352,0.178-0.352h0.178c0.098,0,0.178,0.158,0.178,0.352V415.115z"/>
			<path style="fill:#333333;" d="M219.138,415.717h-0.179c-0.248,0-0.429-0.253-0.429-0.602v-7.451
				c0-0.349,0.181-0.603,0.429-0.603h0.179c0.248,0,0.428,0.253,0.428,0.603v7.451C219.565,415.463,219.386,415.717,219.138,415.717
				z M219.043,415.217h0.01c0.007-0.024,0.013-0.058,0.013-0.102v-7.451c0-0.044-0.006-0.079-0.013-0.103h-0.01
				c-0.007,0.024-0.013,0.059-0.013,0.103v7.451C219.03,415.159,219.036,415.193,219.043,415.217z"/>
		</g>
		<g>
			<path style="fill:#333333;" d="M223.82,415.115c0,0.194-0.08,0.352-0.178,0.352h-0.178c-0.098,0-0.178-0.158-0.178-0.352v-7.451
				c0-0.194,0.08-0.352,0.178-0.352h0.178c0.098,0,0.178,0.158,0.178,0.352V415.115z"/>
			<path style="fill:#333333;" d="M223.642,415.717h-0.179c-0.248,0-0.428-0.253-0.428-0.602v-7.451c0-0.349,0.18-0.603,0.428-0.603
				h0.179c0.248,0,0.429,0.253,0.429,0.603v7.451C224.07,415.463,223.89,415.717,223.642,415.717z M223.548,415.217h0.01
				c0.007-0.024,0.013-0.058,0.013-0.102v-7.451c0-0.044-0.006-0.079-0.013-0.103h-0.01c-0.007,0.024-0.013,0.059-0.013,0.103v7.451
				C223.535,415.159,223.541,415.193,223.548,415.217z"/>
		</g>
	</g>
</g>
</svg>
