<?xml version="1.0" encoding="iso-8859-1"?>
<!-- Generator: Adobe Illustrator 20.1.0, SVG Export Plug-In . SVG Version: 6.00 Build 0)  -->
<svg version="1.1" id="Capa_1" xmlns="http://www.w3.org/2000/svg" xmlns:xlink="http://www.w3.org/1999/xlink" x="0px" y="0px"
	 viewBox="133.279 397 55.239 36.195" style="enable-background:new 133.279 397 55.239 36.195;" xml:space="preserve">
<metadata><?xpacket begin="﻿" id="W5M0MpCehiHzreSzNTczkc9d"?>
<x:xmpmeta xmlns:x="adobe:ns:meta/" x:xmptk="Adobe XMP Core 5.6-c132 79.159284, 2016/04/19-13:13:40        ">
   <rdf:RDF xmlns:rdf="http://www.w3.org/1999/02/22-rdf-syntax-ns#">
      <rdf:Description rdf:about=""/>
   </rdf:RDF>
</x:xmpmeta>
                                                                                                    
                                                                                                    
                                                                                                    
                                                                                                    
                                                                                                    
                                                                                                    
                                                                                                    
                                                                                                    
                                                                                                    
                                                                                                    
                                                                                                    
                                                                                                    
                                                                                                    
                                                                                                    
                                                                                                    
                                                                                                    
                                                                                                    
                                                                                                    
                                                                                                    
                                                                                                    
                           
<?xpacket end="w"?></metadata>
<g>
	<g>
		<path style="fill:#333333;" d="M187.172,433.195h-52.544c-0.743,0-1.349-0.604-1.349-1.347v-6.094
			c0-0.743,0.605-1.347,1.349-1.347h0.846c0.192,0,0.349-0.156,0.349-0.348v-17.926c0-0.192-0.156-0.348-0.349-0.348h-0.846
			c-0.743,0-1.349-0.604-1.349-1.347v-6.093c0-0.743,0.605-1.348,1.349-1.348h52.544c0.742,0,1.346,0.604,1.346,1.348v6.093
			c0,0.743-0.604,1.347-1.346,1.347h-0.849c-0.192,0-0.349,0.156-0.349,0.348v17.926c0,0.192,0.156,0.348,0.349,0.348h0.849
			c0.742,0,1.346,0.604,1.346,1.347v6.094C188.517,432.591,187.914,433.195,187.172,433.195z M134.628,425.408
			c-0.192,0-0.349,0.156-0.349,0.347v6.094c0,0.191,0.156,0.347,0.349,0.347h52.544c0.19,0,0.346-0.155,0.346-0.347v-6.094
			c0-0.191-0.155-0.347-0.346-0.347h-0.849c-0.743,0-1.349-0.604-1.349-1.348v-17.926c0-0.743,0.605-1.348,1.349-1.348h0.849
			c0.19,0,0.346-0.156,0.346-0.347v-6.093c0-0.192-0.155-0.348-0.346-0.348h-52.544c-0.192,0-0.349,0.156-0.349,0.348v6.093
			c0,0.191,0.156,0.347,0.349,0.347h0.846c0.743,0,1.349,0.604,1.349,1.348v17.926c0,0.743-0.605,1.348-1.349,1.348H134.628z"/>
	</g>
	<g>
		<path style="fill:#333333;" d="M143.116,424.06c0,0.468-0.192,0.848-0.428,0.848h-0.429c-0.236,0-0.428-0.38-0.428-0.848v-17.926
			c0-0.468,0.192-0.848,0.428-0.848h0.429c0.237,0,0.428,0.38,0.428,0.848V424.06z"/>
	</g>
	<g>
		<path style="fill:#333333;" d="M149.815,424.06c0,0.468-0.192,0.848-0.428,0.848h-0.429c-0.236,0-0.428-0.38-0.428-0.848v-17.926
			c0-0.468,0.192-0.848,0.428-0.848h0.429c0.237,0,0.428,0.38,0.428,0.848V424.06z"/>
	</g>
	<g>
		<g>
			<path style="fill:#333333;" d="M181.22,421.38h-1.724c-7.824,0-10.274-3.898-12.645-7.666c-2.353-3.743-4.576-7.277-12.07-7.277
				c-0.317,0-0.575-0.257-0.575-0.575s0.257-0.575,0.575-0.575c8.128,0,10.627,3.973,13.043,7.815
				c2.306,3.665,4.483,7.128,11.671,7.128h1.724c0.317,0,0.575,0.258,0.575,0.575S181.537,421.38,181.22,421.38z"/>
			<path style="fill:#333333;" d="M181.22,421.505h-1.725c-7.892,0-10.361-3.926-12.75-7.724c-2.334-3.713-4.538-7.22-11.964-7.22
				c-0.386,0-0.7-0.314-0.7-0.7s0.314-0.7,0.7-0.7c8.198,0,10.715,4.003,13.148,7.874c2.288,3.636,4.448,7.069,11.565,7.069h1.725
				c0.386,0,0.699,0.314,0.699,0.7S181.606,421.505,181.22,421.505z M154.782,405.412c-0.248,0-0.45,0.202-0.45,0.45
				s0.202,0.45,0.45,0.45c7.564,0,9.804,3.563,12.175,7.336c2.354,3.74,4.785,7.607,12.539,7.607h1.725
				c0.248,0,0.449-0.202,0.449-0.45s-0.201-0.45-0.449-0.45h-1.725c-7.255,0-9.451-3.49-11.775-7.184
				C165.321,409.355,162.843,405.412,154.782,405.412z"/>
		</g>
		<g>
			<path style="fill:#333333;" d="M169.883,413.699c-0.136,0-0.271-0.047-0.38-0.145c-0.238-0.21-0.261-0.574-0.049-0.81
				c2.454-2.773,5.553-4.008,10.043-4.008h1.724c0.317,0,0.575,0.257,0.575,0.575c0,0.317-0.257,0.575-0.575,0.575h-1.724
				c-5.297,0-7.689,1.936-9.183,3.62C170.199,413.635,170.04,413.699,169.883,413.699z"/>
			<path style="fill:#333333;" d="M169.883,413.824c-0.172,0-0.337-0.063-0.464-0.177c-0.141-0.125-0.224-0.296-0.234-0.483
				c-0.011-0.186,0.052-0.365,0.176-0.504c2.479-2.801,5.605-4.05,10.136-4.05h1.725c0.386,0,0.699,0.314,0.699,0.7
				s-0.313,0.7-0.699,0.7h-1.725c-5.241,0-7.611,1.912-9.09,3.578C170.275,413.738,170.084,413.824,169.883,413.824z
				 M179.496,408.86c-4.453,0-7.521,1.223-9.949,3.966c-0.08,0.089-0.12,0.204-0.113,0.323c0.007,0.121,0.061,0.231,0.151,0.311
				c0.178,0.16,0.479,0.141,0.634-0.038c1.514-1.706,3.937-3.663,9.277-3.663h1.725c0.248,0,0.449-0.202,0.449-0.45
				s-0.201-0.45-0.449-0.45H179.496z"/>
		</g>
		<g>
			<path style="fill:#333333;" d="M166.896,417.981c-0.107,0-0.215-0.029-0.31-0.091c-0.267-0.171-0.346-0.526-0.174-0.793
				l0.164-0.26c0.171-0.269,0.529-0.348,0.792-0.182c0.269,0.169,0.351,0.524,0.182,0.792l-0.17,0.268
				C167.27,417.888,167.085,417.981,166.896,417.981z"/>
			<path style="fill:#333333;" d="M166.896,418.106c-0.136,0-0.267-0.039-0.379-0.111c-0.157-0.101-0.266-0.258-0.306-0.441
				c-0.039-0.182-0.006-0.368,0.095-0.524l0.165-0.259c0.207-0.327,0.641-0.427,0.964-0.22c0.158,0.099,0.269,0.254,0.311,0.437
				s0.01,0.37-0.09,0.527l-0.17,0.268C167.356,417.985,167.135,418.106,166.896,418.106z M167.066,416.693
				c-0.149,0-0.297,0.075-0.384,0.211l-0.165,0.26c-0.064,0.101-0.087,0.22-0.062,0.337c0.025,0.118,0.096,0.219,0.197,0.284
				c0.201,0.129,0.493,0.067,0.622-0.137l0.17-0.267c0.063-0.101,0.084-0.221,0.057-0.338c-0.026-0.117-0.098-0.217-0.199-0.281
				C167.229,416.715,167.147,416.693,167.066,416.693z"/>
		</g>
		<g>
			<path style="fill:#333333;" d="M154.782,424.829c-0.317,0-0.575-0.257-0.575-0.575s0.257-0.575,0.575-0.575
				c6.879,0,9.337-2.981,11.63-6.582c0.172-0.267,0.53-0.344,0.793-0.176c0.268,0.17,0.347,0.525,0.176,0.793
				C164.994,421.463,162.234,424.829,154.782,424.829z"/>
			<path style="fill:#333333;" d="M154.782,424.954c-0.386,0-0.7-0.314-0.7-0.7s0.314-0.7,0.7-0.7c6.816,0,9.252-2.955,11.523-6.524
				c0.209-0.325,0.641-0.421,0.966-0.215c0.158,0.1,0.268,0.256,0.308,0.438c0.041,0.183,0.008,0.37-0.093,0.528
				C165.08,421.561,162.298,424.954,154.782,424.954z M166.898,416.957c-0.148,0-0.295,0.074-0.383,0.208
				c-2.312,3.632-4.79,6.639-11.733,6.639c-0.248,0-0.45,0.202-0.45,0.45s0.202,0.45,0.45,0.45c7.389,0,10.126-3.338,12.493-7.057
				c0.064-0.101,0.086-0.222,0.06-0.339c-0.025-0.117-0.096-0.217-0.198-0.282C167.063,416.979,166.98,416.957,166.898,416.957z"/>
		</g>
		<g>
			<path style="fill:#333333;" d="M177.772,424.829c-0.147,0-0.294-0.056-0.407-0.168c-0.224-0.224-0.224-0.589,0-0.813l3.042-3.042
				l-3.042-3.042c-0.224-0.224-0.224-0.589,0-0.813s0.589-0.224,0.813,0l3.449,3.449c0.224,0.224,0.224,0.589,0,0.813l-3.449,3.448
				C178.066,424.772,177.919,424.829,177.772,424.829z"/>
			<path style="fill:#333333;" d="M177.771,424.954c-0.187,0-0.362-0.073-0.494-0.205c-0.133-0.132-0.206-0.308-0.206-0.495
				s0.073-0.363,0.206-0.495l2.952-2.953l-2.953-2.954c-0.132-0.132-0.205-0.308-0.205-0.495s0.073-0.363,0.206-0.495
				c0.262-0.262,0.725-0.264,0.988,0l3.449,3.449c0.132,0.132,0.205,0.308,0.205,0.495s-0.073,0.363-0.206,0.495l-3.447,3.449
				C178.134,424.882,177.958,424.954,177.771,424.954z M177.771,416.909c-0.12,0-0.233,0.046-0.317,0.131
				c-0.086,0.085-0.133,0.198-0.133,0.318s0.047,0.233,0.132,0.318l3.13,3.13l-3.129,3.13c-0.086,0.085-0.133,0.198-0.133,0.318
				s0.047,0.233,0.132,0.318c0.172,0.169,0.467,0.169,0.637,0.001l3.447-3.448c0.086-0.085,0.133-0.198,0.133-0.318
				s-0.047-0.233-0.132-0.318l-3.449-3.449C178.005,416.956,177.891,416.909,177.771,416.909z"/>
		</g>
		<g>
			<path style="fill:#333333;" d="M177.772,413.334c-0.147,0-0.294-0.056-0.407-0.168c-0.224-0.224-0.224-0.589,0-0.813l3.043-3.043
				l-3.042-3.042c-0.224-0.224-0.224-0.589,0-0.813s0.589-0.224,0.813,0l3.449,3.449c0.224,0.224,0.224,0.589,0,0.813l-3.449,3.448
				C178.066,413.277,177.919,413.334,177.772,413.334z"/>
			<path style="fill:#333333;" d="M177.771,413.458c-0.187,0-0.362-0.073-0.494-0.205c-0.133-0.132-0.206-0.308-0.206-0.495
				s0.073-0.363,0.206-0.495l2.954-2.955l-2.953-2.953c-0.133-0.132-0.206-0.308-0.206-0.495s0.073-0.363,0.206-0.495
				c0.262-0.264,0.726-0.264,0.989,0l3.448,3.448c0.132,0.132,0.205,0.308,0.205,0.495c0,0.187-0.073,0.363-0.206,0.495
				l-3.447,3.448C178.135,413.386,177.959,413.458,177.771,413.458z M177.772,405.413c-0.12,0-0.233,0.046-0.317,0.131
				c-0.086,0.085-0.133,0.198-0.133,0.318s0.047,0.233,0.132,0.318l3.131,3.13l-3.131,3.131c-0.086,0.085-0.133,0.198-0.133,0.318
				s0.047,0.233,0.132,0.318c0.172,0.169,0.466,0.169,0.638,0l3.447-3.448c0.086-0.085,0.133-0.198,0.133-0.318
				c0-0.121-0.047-0.233-0.132-0.318l-3.449-3.448C178.006,405.459,177.892,405.413,177.772,405.413z"/>
		</g>
	</g>
</g>
</svg>
