<?xml version="1.0" encoding="iso-8859-1"?>
<!-- Generator: Adobe Illustrator 20.1.0, SVG Export Plug-In . SVG Version: 6.00 Build 0)  -->
<svg version="1.1" id="Capa_1" xmlns="http://www.w3.org/2000/svg" xmlns:xlink="http://www.w3.org/1999/xlink" x="0px" y="0px"
	 viewBox="179.381 397 55.238 36.195" style="enable-background:new 179.381 397 55.238 36.195;" xml:space="preserve">
<metadata><?xpacket begin="﻿" id="W5M0MpCehiHzreSzNTczkc9d"?>
<x:xmpmeta xmlns:x="adobe:ns:meta/" x:xmptk="Adobe XMP Core 5.6-c132 79.159284, 2016/04/19-13:13:40        ">
   <rdf:RDF xmlns:rdf="http://www.w3.org/1999/02/22-rdf-syntax-ns#">
      <rdf:Description rdf:about=""/>
   </rdf:RDF>
</x:xmpmeta>
                                                                                                    
                                                                                                    
                                                                                                    
                                                                                                    
                                                                                                    
                                                                                                    
                                                                                                    
                                                                                                    
                                                                                                    
                                                                                                    
                                                                                                    
                                                                                                    
                                                                                                    
                                                                                                    
                                                                                                    
                                                                                                    
                                                                                                    
                                                                                                    
                                                                                                    
                                                                                                    
                           
<?xpacket end="w"?></metadata>
<g>
	<g>
		<path style="fill:#333333;" d="M233.273,433.195h-52.544c-0.743,0-1.349-0.604-1.349-1.347v-6.094
			c0-0.743,0.605-1.347,1.349-1.347h0.846c0.192,0,0.349-0.156,0.349-0.348v-17.926c0-0.192-0.156-0.348-0.349-0.348h-0.846
			c-0.743,0-1.349-0.604-1.349-1.347v-6.093c0-0.743,0.605-1.348,1.349-1.348h52.544c0.742,0,1.346,0.604,1.346,1.348v6.093
			c0,0.743-0.604,1.347-1.346,1.347h-0.849c-0.192,0-0.349,0.156-0.349,0.348v17.926c0,0.192,0.156,0.348,0.349,0.348h0.849
			c0.742,0,1.346,0.604,1.346,1.347v6.094C234.619,432.591,234.016,433.195,233.273,433.195z M180.729,425.408
			c-0.192,0-0.349,0.156-0.349,0.347v6.094c0,0.191,0.156,0.347,0.349,0.347h52.544c0.19,0,0.346-0.155,0.346-0.347v-6.094
			c0-0.191-0.155-0.347-0.346-0.347h-0.849c-0.743,0-1.349-0.604-1.349-1.348v-17.926c0-0.743,0.605-1.348,1.349-1.348h0.849
			c0.19,0,0.346-0.156,0.346-0.347v-6.093c0-0.192-0.155-0.348-0.346-0.348h-52.544c-0.192,0-0.349,0.156-0.349,0.348v6.093
			c0,0.191,0.156,0.347,0.349,0.347h0.846c0.743,0,1.349,0.604,1.349,1.348v17.926c0,0.743-0.605,1.348-1.349,1.348H180.729z"/>
	</g>
	<g>
		<path style="fill:#333333;" d="M189.218,424.06c0,0.468-0.192,0.848-0.428,0.848h-0.429c-0.236,0-0.428-0.38-0.428-0.848v-17.926
			c0-0.468,0.192-0.848,0.428-0.848h0.429c0.237,0,0.428,0.38,0.428,0.848V424.06z"/>
	</g>
	<g>
		<path style="fill:#333333;" d="M195.917,424.06c0,0.468-0.192,0.848-0.428,0.848h-0.429c-0.236,0-0.428-0.38-0.428-0.848v-17.926
			c0-0.468,0.192-0.848,0.428-0.848h0.429c0.237,0,0.428,0.38,0.428,0.848V424.06z"/>
	</g>
	<g>
		<path style="fill:#333333;" d="M202.779,424.06c0,0.468-0.192,0.848-0.428,0.848h-0.429c-0.236,0-0.428-0.38-0.428-0.848v-17.926
			c0-0.468,0.192-0.848,0.428-0.848h0.429c0.237,0,0.428,0.38,0.428,0.848V424.06z"/>
	</g>
	<g>
		<g>
			<path style="fill:#333333;" d="M226.676,424.829h-16.285c-0.673,0-1.221-0.548-1.221-1.221v-4.071
				c0-0.225,0.182-0.407,0.407-0.407s0.407,0.182,0.407,0.407v4.071c0,0.224,0.182,0.407,0.407,0.407h16.285
				c0.225,0,0.407-0.183,0.407-0.407v-4.071c0-0.225,0.182-0.407,0.407-0.407s0.407,0.182,0.407,0.407v4.071
				C227.897,424.281,227.349,424.829,226.676,424.829z"/>
			<path style="fill:#333333;" d="M226.676,425.079h-16.285c-0.812,0-1.472-0.66-1.472-1.471v-4.071
				c0-0.362,0.295-0.657,0.657-0.657s0.657,0.295,0.657,0.657v4.071c0,0.086,0.07,0.157,0.157,0.157h16.285
				c0.087,0,0.157-0.07,0.157-0.157v-4.071c0-0.362,0.295-0.657,0.657-0.657s0.657,0.295,0.657,0.657v4.071
				C228.147,424.418,227.487,425.079,226.676,425.079z M209.576,419.379c-0.087,0-0.157,0.07-0.157,0.157v4.071
				c0,0.536,0.436,0.971,0.972,0.971h16.285c0.536,0,0.972-0.436,0.972-0.971v-4.071c0-0.174-0.314-0.174-0.314,0v4.071
				c0,0.362-0.295,0.657-0.657,0.657h-16.285c-0.362,0-0.657-0.294-0.657-0.657v-4.071
				C209.733,419.449,209.663,419.379,209.576,419.379z"/>
		</g>
		<g>
			<path style="fill:#333333;" d="M218.533,421.572c-0.225,0-0.407-0.182-0.407-0.407v-15.471c0-0.225,0.182-0.407,0.407-0.407
				c0.225,0,0.407,0.182,0.407,0.407v15.471C218.94,421.389,218.758,421.572,218.533,421.572z"/>
			<path style="fill:#333333;" d="M218.533,421.822c-0.362,0-0.657-0.295-0.657-0.657v-15.471c0-0.362,0.295-0.657,0.657-0.657
				s0.657,0.295,0.657,0.657v15.471C219.19,421.527,218.896,421.822,218.533,421.822z M218.533,405.537
				c-0.087,0-0.157,0.07-0.157,0.157v15.471c0,0.174,0.314,0.174,0.314,0v-15.471C218.69,405.607,218.62,405.537,218.533,405.537z"
				/>
		</g>
		<g>
			<path style="fill:#333333;" d="M218.533,421.572c-0.104,0-0.208-0.04-0.288-0.119l-4.885-4.885c-0.159-0.159-0.159-0.417,0-0.576
				c0.159-0.159,0.417-0.159,0.576,0l4.597,4.597l4.597-4.597c0.159-0.159,0.417-0.159,0.576,0c0.159,0.159,0.159,0.417,0,0.576
				l-4.885,4.885C218.742,421.532,218.637,421.572,218.533,421.572z"/>
			<path style="fill:#333333;" d="M218.533,421.822c-0.176,0-0.341-0.068-0.465-0.192l-4.886-4.885
				c-0.124-0.125-0.192-0.29-0.192-0.465c0-0.175,0.068-0.34,0.192-0.464c0.256-0.256,0.674-0.256,0.93,0l4.42,4.42l4.421-4.42
				c0.246-0.249,0.682-0.248,0.93,0c0.123,0.123,0.191,0.288,0.191,0.463c0,0.176-0.068,0.341-0.192,0.465l-4.886,4.885
				C218.874,421.753,218.709,421.822,218.533,421.822z M213.647,416.123c-0.042,0-0.082,0.016-0.111,0.046
				c-0.03,0.03-0.046,0.069-0.046,0.111s0.017,0.082,0.046,0.111l4.886,4.885c0.059,0.059,0.163,0.06,0.22,0.001l4.887-4.886
				c0.029-0.03,0.046-0.069,0.046-0.111s-0.016-0.081-0.046-0.11c-0.06-0.06-0.161-0.06-0.221-0.001l-4.775,4.774l-4.773-4.774
				C213.729,416.139,213.689,416.123,213.647,416.123z"/>
		</g>
	</g>
</g>
</svg>
