<?xml version="1.0" encoding="iso-8859-1"?>
<!-- Generator: Adobe Illustrator 20.1.0, SVG Export Plug-In . SVG Version: 6.00 Build 0)  -->
<svg version="1.1" id="Capa_1" xmlns="http://www.w3.org/2000/svg" xmlns:xlink="http://www.w3.org/1999/xlink" x="0px" y="0px"
	 viewBox="133.279 397 55.239 36.195" style="enable-background:new 133.279 397 55.239 36.195;" xml:space="preserve">
<metadata><?xpacket begin="﻿" id="W5M0MpCehiHzreSzNTczkc9d"?>
<x:xmpmeta xmlns:x="adobe:ns:meta/" x:xmptk="Adobe XMP Core 5.6-c132 79.159284, 2016/04/19-13:13:40        ">
   <rdf:RDF xmlns:rdf="http://www.w3.org/1999/02/22-rdf-syntax-ns#">
      <rdf:Description rdf:about=""/>
   </rdf:RDF>
</x:xmpmeta>
                                                                                                    
                                                                                                    
                                                                                                    
                                                                                                    
                                                                                                    
                                                                                                    
                                                                                                    
                                                                                                    
                                                                                                    
                                                                                                    
                                                                                                    
                                                                                                    
                                                                                                    
                                                                                                    
                                                                                                    
                                                                                                    
                                                                                                    
                                                                                                    
                                                                                                    
                                                                                                    
                           
<?xpacket end="w"?></metadata>
<g>
	<g>
		<path style="fill:#333333;" d="M187.172,433.195h-52.544c-0.743,0-1.349-0.604-1.349-1.347v-6.094
			c0-0.743,0.605-1.347,1.349-1.347h0.846c0.192,0,0.349-0.156,0.349-0.348v-17.926c0-0.192-0.156-0.348-0.349-0.348h-0.846
			c-0.743,0-1.349-0.604-1.349-1.347v-6.093c0-0.743,0.605-1.348,1.349-1.348h52.544c0.742,0,1.346,0.604,1.346,1.348v6.093
			c0,0.743-0.604,1.347-1.346,1.347h-0.849c-0.192,0-0.349,0.156-0.349,0.348v17.926c0,0.192,0.156,0.348,0.349,0.348h0.849
			c0.742,0,1.346,0.604,1.346,1.347v6.094C188.518,432.591,187.914,433.195,187.172,433.195z M134.628,425.408
			c-0.192,0-0.349,0.156-0.349,0.347v6.094c0,0.191,0.156,0.347,0.349,0.347h52.544c0.19,0,0.346-0.155,0.346-0.347v-6.094
			c0-0.191-0.155-0.347-0.346-0.347h-0.849c-0.743,0-1.349-0.604-1.349-1.348v-17.926c0-0.743,0.605-1.348,1.349-1.348h0.849
			c0.19,0,0.346-0.156,0.346-0.347v-6.093c0-0.192-0.155-0.348-0.346-0.348h-52.544c-0.192,0-0.349,0.156-0.349,0.348v6.093
			c0,0.191,0.156,0.347,0.349,0.347h0.846c0.743,0,1.349,0.604,1.349,1.348v17.926c0,0.743-0.605,1.348-1.349,1.348H134.628z"/>
	</g>
	<g>
		<path style="fill:#333333;" d="M143.116,424.06c0,0.468-0.192,0.848-0.428,0.848h-0.429c-0.236,0-0.428-0.38-0.428-0.848v-17.926
			c0-0.468,0.192-0.848,0.428-0.848h0.429c0.237,0,0.428,0.38,0.428,0.848V424.06z"/>
	</g>
	<g>
		<path style="fill:#333333;" d="M149.815,424.06c0,0.468-0.192,0.848-0.428,0.848h-0.429c-0.236,0-0.428-0.38-0.428-0.848v-17.926
			c0-0.468,0.192-0.848,0.428-0.848h0.429c0.237,0,0.428,0.38,0.428,0.848V424.06z"/>
	</g>
	<g>
		<path style="fill:#333333;" d="M156.677,424.06c0,0.468-0.192,0.848-0.428,0.848h-0.429c-0.236,0-0.428-0.38-0.428-0.848v-17.926
			c0-0.468,0.192-0.848,0.428-0.848h0.429c0.237,0,0.428,0.38,0.428,0.848V424.06z"/>
	</g>
	<g>
		<g>
			<path style="fill:#333333;" d="M172.953,417.791c-0.938,0-1.876-0.357-2.59-1.071c-0.159-0.159-0.159-0.417,0-0.576
				c0.159-0.159,0.417-0.159,0.576,0c1.112,1.112,2.919,1.11,4.03,0l5.18-5.181c1.11-1.111,1.11-2.919,0-4.03
				c-1.111-1.11-2.918-1.11-4.029,0l-3.553,3.553c-0.159,0.159-0.417,0.159-0.576,0s-0.159-0.417,0-0.576l3.553-3.553
				c1.428-1.428,3.752-1.428,5.18,0c1.429,1.428,1.429,3.753,0,5.181l-5.18,5.181C174.83,417.433,173.892,417.791,172.953,417.791z"
				/>
			<path style="fill:#333333;" d="M172.953,418.041c-1.047,0-2.029-0.407-2.767-1.145c-0.124-0.124-0.192-0.289-0.192-0.464
				c0-0.176,0.068-0.341,0.192-0.465c0.246-0.248,0.681-0.248,0.929,0c0.49,0.491,1.144,0.761,1.838,0.761c0,0,0,0,0.001,0
				c0.694,0,1.347-0.27,1.837-0.76l5.181-5.181c1.013-1.014,1.013-2.663,0-3.676c-1.014-1.013-2.662-1.013-3.676,0l-3.553,3.553
				c-0.246,0.249-0.683,0.248-0.929,0c-0.124-0.123-0.192-0.288-0.192-0.464c0-0.176,0.068-0.341,0.192-0.465l3.553-3.552
				c1.525-1.525,4.008-1.525,5.533,0c0.738,0.738,1.145,1.721,1.145,2.767c0,1.047-0.406,2.03-1.145,2.768l-5.18,5.181
				C174.982,417.634,174,418.041,172.953,418.041z M170.65,416.274c-0.042,0-0.081,0.016-0.11,0.045
				c-0.029,0.03-0.046,0.07-0.046,0.112s0.016,0.081,0.046,0.11c0.643,0.644,1.5,0.999,2.413,0.999s1.771-0.354,2.414-0.998
				l5.18-5.181c0.644-0.644,0.998-1.501,0.998-2.414c0-0.913-0.354-1.77-0.998-2.414c-1.33-1.33-3.496-1.33-4.826,0l-3.553,3.553
				c-0.03,0.03-0.046,0.069-0.046,0.111c0,0.042,0.016,0.082,0.046,0.111c0.058,0.06,0.163,0.061,0.222,0.001l3.553-3.553
				c1.209-1.207,3.174-1.207,4.383,0c1.207,1.208,1.207,3.175,0,4.383l-5.181,5.181c-0.584,0.584-1.362,0.907-2.19,0.907h-0.001
				c-0.828,0-1.606-0.322-2.191-0.907C170.732,416.291,170.692,416.274,170.65,416.274z"/>
		</g>
		<g>
			<path style="fill:#333333;" d="M165.915,424.829c-0.938,0-1.876-0.357-2.59-1.071c-1.429-1.428-1.429-3.753,0-5.181l5.18-5.181
				c1.426-1.428,3.751-1.43,5.181,0c0.159,0.159,0.159,0.417,0,0.576c-0.159,0.159-0.417,0.159-0.576,0
				c-1.111-1.11-2.919-1.11-4.03,0l-5.179,5.181c-1.11,1.111-1.11,2.919,0,4.03c1.111,1.11,2.918,1.11,4.029,0l3.553-3.553
				c0.159-0.159,0.417-0.159,0.576,0c0.159,0.159,0.159,0.417,0,0.576l-3.553,3.553
				C167.791,424.472,166.853,424.829,165.915,424.829z"/>
			<path style="fill:#333333;" d="M165.915,425.079c-1.048,0-2.03-0.406-2.768-1.144c-0.738-0.738-1.145-1.72-1.145-2.767
				s0.406-2.029,1.145-2.767l5.18-5.181c0.737-0.738,1.72-1.145,2.767-1.145c0,0,0,0,0.001,0c1.046,0,2.029,0.406,2.768,1.145
				c0.255,0.257,0.255,0.673,0,0.929c-0.256,0.257-0.674,0.256-0.93,0.001c-1.012-1.013-2.662-1.013-3.676,0l-5.18,5.181
				c-1.013,1.013-1.013,2.663,0,3.676c1.014,1.013,2.662,1.013,3.676,0l3.553-3.553c0.247-0.249,0.684-0.248,0.929,0
				c0.124,0.123,0.192,0.288,0.192,0.464s-0.068,0.341-0.192,0.465l-3.553,3.552C167.944,424.672,166.962,425.079,165.915,425.079z
				 M171.095,412.575C171.094,412.575,171.094,412.575,171.095,412.575c-0.914,0-1.771,0.354-2.414,0.998l-5.18,5.181
				c-0.644,0.644-0.998,1.5-0.998,2.414s0.354,1.77,0.998,2.414c0.643,0.643,1.5,0.998,2.414,0.998c0.913,0,1.771-0.354,2.413-0.998
				l3.553-3.553c0.03-0.03,0.046-0.069,0.046-0.111s-0.016-0.081-0.046-0.11c-0.059-0.061-0.162-0.061-0.222-0.001l-3.553,3.553
				c-1.209,1.207-3.174,1.207-4.383,0c-1.208-1.209-1.208-3.175,0-4.383l5.18-5.181c1.21-1.208,3.177-1.206,4.383,0
				c0.061,0.061,0.162,0.061,0.223,0c0.061-0.061,0.061-0.161-0.001-0.222C172.865,412.929,172.008,412.575,171.095,412.575z"/>
		</g>
	</g>
</g>
</svg>
